<mxfile host="Electron" modified="2023-07-22T18:20:56.907Z" agent="Mozilla/5.0 (Windows NT 10.0; Win64; x64) AppleWebKit/537.36 (KHTML, like Gecko) draw.io/21.6.1 Chrome/112.0.5615.204 Electron/24.6.1 Safari/537.36" etag="8h1tajF--qOc4Ue-jCaS" version="21.6.1" type="device">
  <diagram name="Page-1" id="G-pTOAZ0ngyvm14yVZZM">
    <mxGraphModel dx="1726" dy="1007" grid="1" gridSize="1" guides="1" tooltips="1" connect="1" arrows="1" fold="1" page="1" pageScale="1" pageWidth="4681" pageHeight="3300" math="0" shadow="0">
      <root>
        <mxCell id="0" />
        <mxCell id="1" parent="0" />
        <mxCell id="z_xqPQhV2vt22zsW6BBL-17" value="" style="edgeStyle=orthogonalEdgeStyle;rounded=1;orthogonalLoop=1;jettySize=auto;html=1;fontSize=38;fontStyle=1;labelBackgroundColor=none;fontColor=default;strokeWidth=4;fillColor=#dae8fc;strokeColor=#6c8ebf;fontFamily=Comic Sans MS;entryX=0;entryY=0.5;entryDx=0;entryDy=0;" parent="1" source="z_xqPQhV2vt22zsW6BBL-15" target="z_xqPQhV2vt22zsW6BBL-16" edge="1">
          <mxGeometry relative="1" as="geometry">
            <mxPoint x="378" y="615" as="targetPoint" />
          </mxGeometry>
        </mxCell>
        <mxCell id="m7NfxzANGjToQ8AiflsR-14" value="" style="edgeStyle=orthogonalEdgeStyle;shape=connector;rounded=1;orthogonalLoop=1;jettySize=auto;html=1;labelBackgroundColor=none;strokeColor=#6c8ebf;strokeWidth=4;fontFamily=Comic Sans MS;fontSize=38;fontColor=default;endArrow=classic;fillColor=#dae8fc;" parent="1" source="z_xqPQhV2vt22zsW6BBL-15" target="z_xqPQhV2vt22zsW6BBL-28" edge="1">
          <mxGeometry relative="1" as="geometry" />
        </mxCell>
        <mxCell id="ZiLW68C0tdwQ2DPmhxSe-2" style="edgeStyle=orthogonalEdgeStyle;shape=connector;rounded=1;orthogonalLoop=1;jettySize=auto;html=1;exitX=0.5;exitY=0;exitDx=0;exitDy=0;entryX=0.5;entryY=1;entryDx=0;entryDy=0;labelBackgroundColor=none;strokeColor=#6c8ebf;strokeWidth=4;fontFamily=Comic Sans MS;fontSize=38;fontColor=default;endArrow=classic;fillColor=#dae8fc;" edge="1" parent="1" source="z_xqPQhV2vt22zsW6BBL-15" target="m7NfxzANGjToQ8AiflsR-13">
          <mxGeometry relative="1" as="geometry" />
        </mxCell>
        <mxCell id="z_xqPQhV2vt22zsW6BBL-15" value="&lt;font data-font-src=&quot;https://fonts.googleapis.com/css?family=Architects+Daughter&quot;&gt;index&lt;/font&gt;" style="ellipse;whiteSpace=wrap;html=1;aspect=fixed;strokeWidth=3;fontSize=25;rounded=1;labelBackgroundColor=none;fillColor=#DAEDD9;strokeColor=#82b366;fontFamily=Comic Sans MS;fontStyle=0" parent="1" vertex="1">
          <mxGeometry x="120" y="554" width="110" height="110" as="geometry" />
        </mxCell>
        <mxCell id="m7NfxzANGjToQ8AiflsR-19" value="" style="edgeStyle=orthogonalEdgeStyle;shape=connector;rounded=1;orthogonalLoop=1;jettySize=auto;html=1;labelBackgroundColor=none;strokeColor=#6c8ebf;strokeWidth=4;fontFamily=Comic Sans MS;fontSize=38;fontColor=default;endArrow=classic;fillColor=#dae8fc;" parent="1" source="z_xqPQhV2vt22zsW6BBL-16" target="z_xqPQhV2vt22zsW6BBL-19" edge="1">
          <mxGeometry relative="1" as="geometry" />
        </mxCell>
        <mxCell id="m7NfxzANGjToQ8AiflsR-23" style="edgeStyle=orthogonalEdgeStyle;shape=connector;rounded=1;orthogonalLoop=1;jettySize=auto;html=1;exitX=1;exitY=0.5;exitDx=0;exitDy=0;entryX=0.5;entryY=1;entryDx=0;entryDy=0;labelBackgroundColor=none;strokeColor=#6c8ebf;strokeWidth=4;fontFamily=Comic Sans MS;fontSize=38;fontColor=default;endArrow=classic;fillColor=#dae8fc;" parent="1" source="z_xqPQhV2vt22zsW6BBL-16" target="z_xqPQhV2vt22zsW6BBL-18" edge="1">
          <mxGeometry relative="1" as="geometry" />
        </mxCell>
        <mxCell id="m7NfxzANGjToQ8AiflsR-27" style="edgeStyle=orthogonalEdgeStyle;shape=connector;rounded=1;orthogonalLoop=1;jettySize=auto;html=1;exitX=1;exitY=1;exitDx=0;exitDy=0;entryX=0.5;entryY=1;entryDx=0;entryDy=0;labelBackgroundColor=none;strokeColor=#6c8ebf;strokeWidth=4;fontFamily=Comic Sans MS;fontSize=38;fontColor=default;endArrow=classic;fillColor=#dae8fc;" parent="1" source="z_xqPQhV2vt22zsW6BBL-16" target="m7NfxzANGjToQ8AiflsR-1" edge="1">
          <mxGeometry relative="1" as="geometry" />
        </mxCell>
        <mxCell id="m7NfxzANGjToQ8AiflsR-28" style="edgeStyle=orthogonalEdgeStyle;shape=connector;rounded=1;orthogonalLoop=1;jettySize=auto;html=1;exitX=1;exitY=1;exitDx=0;exitDy=0;entryX=0.5;entryY=1;entryDx=0;entryDy=0;labelBackgroundColor=none;strokeColor=#6c8ebf;strokeWidth=4;fontFamily=Comic Sans MS;fontSize=38;fontColor=default;endArrow=classic;fillColor=#dae8fc;" parent="1" source="z_xqPQhV2vt22zsW6BBL-16" target="z_xqPQhV2vt22zsW6BBL-25" edge="1">
          <mxGeometry relative="1" as="geometry" />
        </mxCell>
        <mxCell id="m7NfxzANGjToQ8AiflsR-32" style="edgeStyle=orthogonalEdgeStyle;shape=connector;rounded=1;orthogonalLoop=1;jettySize=auto;html=1;exitX=1;exitY=1;exitDx=0;exitDy=0;entryX=0.5;entryY=1;entryDx=0;entryDy=0;labelBackgroundColor=none;strokeColor=#6c8ebf;strokeWidth=4;fontFamily=Comic Sans MS;fontSize=38;fontColor=default;endArrow=classic;fillColor=#dae8fc;" parent="1" source="z_xqPQhV2vt22zsW6BBL-16" target="m7NfxzANGjToQ8AiflsR-9" edge="1">
          <mxGeometry relative="1" as="geometry" />
        </mxCell>
        <mxCell id="m7NfxzANGjToQ8AiflsR-35" style="edgeStyle=orthogonalEdgeStyle;shape=connector;rounded=1;orthogonalLoop=1;jettySize=auto;html=1;exitX=1;exitY=1;exitDx=0;exitDy=0;entryX=0.5;entryY=1;entryDx=0;entryDy=0;labelBackgroundColor=none;strokeColor=#6c8ebf;strokeWidth=4;fontFamily=Comic Sans MS;fontSize=38;fontColor=default;endArrow=classic;fillColor=#dae8fc;" parent="1" source="z_xqPQhV2vt22zsW6BBL-16" target="m7NfxzANGjToQ8AiflsR-2" edge="1">
          <mxGeometry relative="1" as="geometry" />
        </mxCell>
        <mxCell id="m7NfxzANGjToQ8AiflsR-38" style="edgeStyle=orthogonalEdgeStyle;shape=connector;rounded=1;orthogonalLoop=1;jettySize=auto;html=1;exitX=1;exitY=1;exitDx=0;exitDy=0;entryX=0.5;entryY=1;entryDx=0;entryDy=0;labelBackgroundColor=none;strokeColor=#6c8ebf;strokeWidth=4;fontFamily=Comic Sans MS;fontSize=38;fontColor=default;endArrow=classic;fillColor=#dae8fc;" parent="1" source="z_xqPQhV2vt22zsW6BBL-16" target="m7NfxzANGjToQ8AiflsR-6" edge="1">
          <mxGeometry relative="1" as="geometry" />
        </mxCell>
        <mxCell id="z_xqPQhV2vt22zsW6BBL-16" value="pairwise" style="ellipse;whiteSpace=wrap;html=1;aspect=fixed;strokeWidth=3;fontSize=25;rounded=1;labelBackgroundColor=none;fillColor=#fff2cc;strokeColor=#d6b656;fontFamily=Comic Sans MS;" parent="1" vertex="1">
          <mxGeometry x="400" y="554" width="110" height="110" as="geometry" />
        </mxCell>
        <mxCell id="m7NfxzANGjToQ8AiflsR-25" style="edgeStyle=orthogonalEdgeStyle;shape=connector;rounded=1;orthogonalLoop=1;jettySize=auto;html=1;exitX=0.5;exitY=0;exitDx=0;exitDy=0;entryX=1;entryY=0.5;entryDx=0;entryDy=0;labelBackgroundColor=none;strokeColor=#6c8ebf;strokeWidth=4;fontFamily=Comic Sans MS;fontSize=38;fontColor=default;endArrow=classic;fillColor=#dae8fc;" parent="1" source="z_xqPQhV2vt22zsW6BBL-18" target="z_xqPQhV2vt22zsW6BBL-19" edge="1">
          <mxGeometry relative="1" as="geometry" />
        </mxCell>
        <mxCell id="z_xqPQhV2vt22zsW6BBL-18" value="cluster" style="ellipse;whiteSpace=wrap;html=1;aspect=fixed;strokeWidth=3;fontSize=25;rounded=1;labelBackgroundColor=none;fillColor=#fff2cc;strokeColor=#d6b656;fontFamily=Comic Sans MS;" parent="1" vertex="1">
          <mxGeometry x="548" y="457" width="110" height="110" as="geometry" />
        </mxCell>
        <mxCell id="m7NfxzANGjToQ8AiflsR-22" style="edgeStyle=orthogonalEdgeStyle;shape=connector;rounded=1;orthogonalLoop=1;jettySize=auto;html=1;exitX=1;exitY=0.5;exitDx=0;exitDy=0;entryX=0.5;entryY=0;entryDx=0;entryDy=0;labelBackgroundColor=none;strokeColor=#6c8ebf;strokeWidth=4;fontFamily=Comic Sans MS;fontSize=38;fontColor=default;endArrow=classic;fillColor=#dae8fc;" parent="1" source="z_xqPQhV2vt22zsW6BBL-19" target="z_xqPQhV2vt22zsW6BBL-18" edge="1">
          <mxGeometry relative="1" as="geometry" />
        </mxCell>
        <mxCell id="m7NfxzANGjToQ8AiflsR-26" style="edgeStyle=orthogonalEdgeStyle;shape=connector;rounded=1;orthogonalLoop=1;jettySize=auto;html=1;exitX=1;exitY=0;exitDx=0;exitDy=0;entryX=0.5;entryY=0;entryDx=0;entryDy=0;labelBackgroundColor=none;strokeColor=#6c8ebf;strokeWidth=4;fontFamily=Comic Sans MS;fontSize=38;fontColor=default;endArrow=classic;fillColor=#dae8fc;" parent="1" source="z_xqPQhV2vt22zsW6BBL-19" target="m7NfxzANGjToQ8AiflsR-1" edge="1">
          <mxGeometry relative="1" as="geometry" />
        </mxCell>
        <mxCell id="m7NfxzANGjToQ8AiflsR-29" style="edgeStyle=orthogonalEdgeStyle;shape=connector;rounded=1;orthogonalLoop=1;jettySize=auto;html=1;exitX=1;exitY=0;exitDx=0;exitDy=0;entryX=0.5;entryY=0;entryDx=0;entryDy=0;labelBackgroundColor=none;strokeColor=#6c8ebf;strokeWidth=4;fontFamily=Comic Sans MS;fontSize=38;fontColor=default;endArrow=classic;fillColor=#dae8fc;" parent="1" source="z_xqPQhV2vt22zsW6BBL-19" target="z_xqPQhV2vt22zsW6BBL-25" edge="1">
          <mxGeometry relative="1" as="geometry" />
        </mxCell>
        <mxCell id="m7NfxzANGjToQ8AiflsR-30" style="edgeStyle=orthogonalEdgeStyle;shape=connector;rounded=1;orthogonalLoop=1;jettySize=auto;html=1;exitX=1;exitY=0;exitDx=0;exitDy=0;entryX=0.5;entryY=0;entryDx=0;entryDy=0;labelBackgroundColor=none;strokeColor=#6c8ebf;strokeWidth=4;fontFamily=Comic Sans MS;fontSize=38;fontColor=default;endArrow=classic;fillColor=#dae8fc;" parent="1" source="z_xqPQhV2vt22zsW6BBL-19" target="m7NfxzANGjToQ8AiflsR-9" edge="1">
          <mxGeometry relative="1" as="geometry" />
        </mxCell>
        <mxCell id="m7NfxzANGjToQ8AiflsR-33" style="edgeStyle=orthogonalEdgeStyle;shape=connector;rounded=1;orthogonalLoop=1;jettySize=auto;html=1;exitX=1;exitY=0;exitDx=0;exitDy=0;entryX=0.5;entryY=0;entryDx=0;entryDy=0;labelBackgroundColor=none;strokeColor=#6c8ebf;strokeWidth=4;fontFamily=Comic Sans MS;fontSize=38;fontColor=default;endArrow=classic;fillColor=#dae8fc;" parent="1" source="z_xqPQhV2vt22zsW6BBL-19" target="m7NfxzANGjToQ8AiflsR-2" edge="1">
          <mxGeometry relative="1" as="geometry" />
        </mxCell>
        <mxCell id="m7NfxzANGjToQ8AiflsR-36" style="edgeStyle=orthogonalEdgeStyle;shape=connector;rounded=1;orthogonalLoop=1;jettySize=auto;html=1;exitX=1;exitY=0;exitDx=0;exitDy=0;entryX=0.5;entryY=0;entryDx=0;entryDy=0;labelBackgroundColor=none;strokeColor=#6c8ebf;strokeWidth=4;fontFamily=Comic Sans MS;fontSize=38;fontColor=default;endArrow=classic;fillColor=#dae8fc;" parent="1" source="z_xqPQhV2vt22zsW6BBL-19" target="m7NfxzANGjToQ8AiflsR-6" edge="1">
          <mxGeometry relative="1" as="geometry" />
        </mxCell>
        <mxCell id="z_xqPQhV2vt22zsW6BBL-19" value="filter" style="ellipse;whiteSpace=wrap;html=1;aspect=fixed;strokeWidth=3;fontSize=25;rounded=1;labelBackgroundColor=none;fillColor=#fff2cc;strokeColor=#d6b656;fontFamily=Comic Sans MS;" parent="1" vertex="1">
          <mxGeometry x="399.5" y="362" width="111" height="110" as="geometry" />
        </mxCell>
        <mxCell id="z_xqPQhV2vt22zsW6BBL-25" value="export" style="ellipse;whiteSpace=wrap;html=1;aspect=fixed;strokeWidth=3;fontSize=25;rounded=1;labelBackgroundColor=none;fillColor=#fff2cc;strokeColor=#d6b656;fontFamily=Comic Sans MS;" parent="1" vertex="1">
          <mxGeometry x="878" y="457" width="110" height="110" as="geometry" />
        </mxCell>
        <mxCell id="z_xqPQhV2vt22zsW6BBL-28" value="query" style="ellipse;whiteSpace=wrap;html=1;aspect=fixed;strokeWidth=3;fontSize=25;rounded=1;labelBackgroundColor=none;fillColor=#fff2cc;strokeColor=#d6b656;fontFamily=Comic Sans MS;" parent="1" vertex="1">
          <mxGeometry x="260" y="362" width="110" height="110" as="geometry" />
        </mxCell>
        <mxCell id="m7NfxzANGjToQ8AiflsR-1" value="&lt;font style=&quot;font-size: 18px;&quot;&gt;interactome&lt;/font&gt;" style="ellipse;whiteSpace=wrap;html=1;aspect=fixed;strokeWidth=3;fontSize=25;rounded=1;labelBackgroundColor=none;fillColor=#fff2cc;strokeColor=#d6b656;fontFamily=Comic Sans MS;fontStyle=1" parent="1" vertex="1">
          <mxGeometry x="717" y="457" width="110" height="110" as="geometry" />
        </mxCell>
        <mxCell id="m7NfxzANGjToQ8AiflsR-2" value="&lt;font data-font-src=&quot;https://fonts.googleapis.com/css?family=Architects+Daughter&quot;&gt;dedup&lt;br&gt;&lt;/font&gt;" style="ellipse;whiteSpace=wrap;html=1;aspect=fixed;strokeWidth=3;fontSize=25;rounded=1;labelBackgroundColor=none;fillColor=#fff2cc;strokeColor=#d6b656;fontFamily=Comic Sans MS;" parent="1" vertex="1">
          <mxGeometry x="1230" y="457" width="110" height="110" as="geometry" />
        </mxCell>
        <mxCell id="m7NfxzANGjToQ8AiflsR-6" value="&lt;font style=&quot;font-size: 21px;&quot; data-font-src=&quot;https://fonts.googleapis.com/css?family=Architects+Daughter&quot;&gt;modularity&lt;/font&gt;" style="ellipse;whiteSpace=wrap;html=1;aspect=fixed;strokeWidth=3;fontSize=25;rounded=1;labelBackgroundColor=none;fillColor=#fff2cc;strokeColor=#d6b656;fontFamily=Comic Sans MS;" parent="1" vertex="1">
          <mxGeometry x="1406" y="457" width="110" height="110" as="geometry" />
        </mxCell>
        <mxCell id="m7NfxzANGjToQ8AiflsR-9" value="&lt;font data-font-src=&quot;https://fonts.googleapis.com/css?family=Architects+Daughter&quot;&gt;bipartite&lt;/font&gt;" style="ellipse;whiteSpace=wrap;html=1;aspect=fixed;strokeWidth=3;fontSize=25;rounded=1;labelBackgroundColor=none;fillColor=#fff2cc;strokeColor=#d6b656;fontFamily=Comic Sans MS;" parent="1" vertex="1">
          <mxGeometry x="1054" y="457" width="110" height="110" as="geometry" />
        </mxCell>
        <mxCell id="m7NfxzANGjToQ8AiflsR-13" value="&lt;font data-font-src=&quot;https://fonts.googleapis.com/css?family=Architects+Daughter&quot;&gt;setcov&lt;/font&gt;" style="ellipse;whiteSpace=wrap;html=1;aspect=fixed;strokeWidth=3;fontSize=25;rounded=1;labelBackgroundColor=none;fillColor=#fff2cc;strokeColor=#d6b656;fontFamily=Comic Sans MS;" parent="1" vertex="1">
          <mxGeometry x="120" y="362" width="110" height="110" as="geometry" />
        </mxCell>
      </root>
    </mxGraphModel>
  </diagram>
</mxfile>
